<?xml version="1.0" encoding="UTF-8" standalone="no"?>
<svg
   xmlns:dc="http://purl.org/dc/elements/1.1/"
   xmlns:cc="http://creativecommons.org/ns#"
   xmlns:rdf="http://www.w3.org/1999/02/22-rdf-syntax-ns#"
   xmlns:svg="http://www.w3.org/2000/svg"
   xmlns="http://www.w3.org/2000/svg"
   xmlns:sodipodi="http://sodipodi.sourceforge.net/DTD/sodipodi-0.dtd"
   xmlns:inkscape="http://www.inkscape.org/namespaces/inkscape"
   viewBox="0 0 1154.3708 517.04089"
   height="517.04089"
   width="1154.3708"
   xml:space="preserve"
   version="1.1"
   id="svg2"
   inkscape:version="0.91 r13725"
   sodipodi:docname="Governance.svg"><sodipodi:namedview
     pagecolor="#ffffff"
     bordercolor="#666666"
     borderopacity="1"
     objecttolerance="10"
     gridtolerance="10"
     guidetolerance="10"
     inkscape:pageopacity="0"
     inkscape:pageshadow="2"
     inkscape:window-width="1122"
     inkscape:window-height="838"
     id="namedview197"
     showgrid="false"
     inkscape:zoom="0.48"
     inkscape:cx="577.18542"
     inkscape:cy="258.52045"
     inkscape:window-x="0"
     inkscape:window-y="0"
     inkscape:window-maximized="0"
     inkscape:current-layer="g16" /><metadata
     id="metadata8"><rdf:RDF><cc:Work
         rdf:about=""><dc:format>image/svg+xml</dc:format><dc:type
           rdf:resource="http://purl.org/dc/dcmitype/StillImage" /><dc:title /></cc:Work></rdf:RDF></metadata><defs
     id="defs6"><clipPath
       id="clipPath18"
       clipPathUnits="userSpaceOnUse"><path
         id="path20"
         d="m 0,2.324581e-5 959.8909,0 0,539.99999675419 L 0,540.00002 0,2.324581e-5 Z" /></clipPath></defs><g
     transform="matrix(1.25,0,0,-1.25,-28.113175,654.45787)"
     id="g10"><g
       id="g12" /><g
       id="g14"><g
         clip-path="url(#clipPath18)"
         id="g16"><path
           id="path22"
           style="fill:#ffffff;fill-opacity:1;fill-rule:evenodd;stroke:none"
           d="m 25,103.33339 921.66647,0 0,429.9999 -921.66647,0 0,-429.9999 z"
           inkscape:connector-curvature="0" /><path
           id="path24"
           style="fill:#55677d;fill-opacity:1;fill-rule:evenodd;stroke:none"
           d="m 336.8608,419.8413 343.6253,0 0,99.36093 -343.6253,0 0,-99.36093 z" /><g
           transform="translate(344.0608,515.6022)"
           id="g26"><text
             id="text28"
             style="font-variant:normal;font-weight:bold;font-size:20px;font-family:Arial;-inkscape-font-specification:Arial-BoldMT;writing-mode:lr-tb;fill:#ffffff;fill-opacity:1;fill-rule:nonzero;stroke:none"
             transform="matrix(1,0,0,-1,86.44823,-20)"><tspan
               id="tspan30"
               y="0"
               x="0 13.34 24.464001 35.588001 46.712002 58.928001 65.587997 71.143997 82.267998 93.391998 98.947998 113.392 125.608 136.73199 144.51601 156.73199">Executive Board </tspan></text>
</g><g
           transform="translate(344.0608,491.6022)"
           id="g32"><text
             id="text34"
             style="font-variant:normal;font-weight:normal;font-size:14px;font-family:Arial;-inkscape-font-specification:ArialMT;writing-mode:lr-tb;fill:#ffffff;fill-opacity:1;fill-rule:nonzero;stroke:none"
             transform="matrix(1,0,0,-1,71.57713,-14)"><tspan
               id="tspan36"
               y="0"
               x="0 7 14.7868 22.573601 29.573601 37.360401 44.360401 52.147202 59.933998 64.596001 71.596001 79.382797 87.169601 91.0588 102.7208 106.61 110.4992 123.4604 131.24719 139.034 146.8208 151.4828 155.37199 160.034 169.37199 173.2612 181.81239 186.4744">spokesperson M. Weber (KIT) </tspan></text>
</g><g
           transform="translate(344.0608,475.6022)"
           id="g38" /><g
           transform="translate(344.0608,458.6022)"
           id="g40"><text
             id="text42"
             style="font-variant:normal;font-weight:normal;font-size:14px;font-family:Arial;-inkscape-font-specification:ArialMT;writing-mode:lr-tb;fill:#ffffff;fill-opacity:1;fill-rule:nonzero;stroke:none"
             transform="matrix(1,0,0,-1,79.59569,-14)"><tspan
               id="tspan44"
               y="0"
               x="0 4.6620002 12.4488 20.2356 24.8976 32.684399 39.684399 47.471199 55.257999 59.147202 66.933998 70.823196 73.933998 80.933998 88.720802 95.720802 99.610001 107.3968 111.286 115.1752 119.0644 126.8512 134.638 138.52721 142.4164 150.2032 154.8652 162.65199 170.4388">representatives of the three </tspan></text>
</g><g
           transform="translate(344.0608,441.6022)"
           id="g46"><text
             id="text48"
             style="font-variant:normal;font-weight:normal;font-size:14px;font-family:Arial;-inkscape-font-specification:ArialMT;writing-mode:lr-tb;fill:#ffffff;fill-opacity:1;fill-rule:nonzero;stroke:none"
             transform="matrix(1,0,0,-1,117.3506,-14)"><tspan
               id="tspan50"
               y="0"
               x="0 4.6620002 12.4488 19.448799 27.2356 35.0224 39.684399 46.684399 54.471199 58.360401 66.147202 69.258003 72.368797 75.479599 83.266403 87.928398 94.928398">research pillars </tspan></text>
</g><path
           id="path52"
           style="fill:#dee3ea;fill-opacity:1;fill-rule:evenodd;stroke:none"
           d="m 722.2585,420.4519 215.491,0 0,98.13974 -215.491,0 0,-98.13974 z" /><g
           transform="translate(729.4586,506.7217)"
           id="g54"><text
             id="text56"
             style="font-variant:normal;font-weight:bold;font-size:20px;font-family:Arial;-inkscape-font-specification:Arial-BoldMT;writing-mode:lr-tb;fill:#000000;fill-opacity:1;fill-rule:nonzero;stroke:none"
             transform="matrix(1,0,0,-1,26.28711,-20)"><tspan
               id="tspan58"
               y="0"
               x="0 14.444 26.667999 37.792 43.355999 54.48 66.704002 74.487999 85.612 91.176003 105.62 117.844 128.968 136.752 148.976">Advisory Board </tspan></text>
</g><g
           transform="translate(729.4586,482.7217)"
           id="g60" /><g
           transform="translate(729.4586,466.7217)"
           id="g62"><text
             id="text64"
             style="font-variant:normal;font-weight:normal;font-size:14px;font-family:Arial;-inkscape-font-specification:ArialMT;writing-mode:lr-tb;fill:#000000;fill-opacity:1;fill-rule:nonzero;stroke:none"
             transform="matrix(1,0,0,-1,19.04346,-14)"><tspan
               id="tspan66"
               y="0"
               x="0 3.1108 10.8976 17.8976 25.684401 28.7952 35.7952 43.582001 51.368801 55.257999 59.919998 67.706802 74.706802 82.493599 90.280403 94.942398 101.9424 109.7292 113.6184 120.6184 128.4052 136.192 140.08121 147.868 152.53 159.53 163.4192">involved research centers, </tspan></text>
</g><g
           transform="translate(729.4586,449.7217)"
           id="g68"><text
             id="text70"
             style="font-variant:normal;font-weight:normal;font-size:14px;font-family:Arial;-inkscape-font-specification:ArialMT;writing-mode:lr-tb;fill:#000000;fill-opacity:1;fill-rule:nonzero;stroke:none"
             transform="matrix(1,0,0,-1,21.38135,-14)"><tspan
               id="tspan72"
               y="0"
               x="0 7.7867999 15.5736 18.684401 25.684401 33.471199 38.133202 45.133202 48.243999 52.133202 59.133202 63.0224 67.684402 75.471199 83.258003 87.919998 95.706802 102.7068 110.4936 118.2804 122.1696 129.95641 133.8456 136.95641 143.95641 151.74319 158.74319">university representatives </tspan></text>
</g><path
           id="path74"
           style="fill:#ffdf79;fill-opacity:1;fill-rule:evenodd;stroke:none"
           d="m 33.44787,318.1733 28.34645,0 0,57.42252 -28.34645,0 0,-57.42252 z" /><g
           transform="matrix(0,1,-1,0,37.04787,325.3733)"
           id="g76"><text
             id="text78"
             style="font-variant:normal;font-weight:bold;font-size:14px;font-family:Arial;-inkscape-font-specification:Arial-BoldMT;writing-mode:lr-tb;fill:#000000;fill-opacity:1;fill-rule:nonzero;stroke:none"
             transform="matrix(1,0,0,-1,0.7363281,-14)"><tspan
               id="tspan80"
               y="0"
               x="0 9.3380003 13.2272 17.1164 21.0056 28.7924 34.241199 42.028">Pillars </tspan></text>
</g><path
           id="path82"
           style="fill:#c8dff2;fill-opacity:1;fill-rule:evenodd;stroke:none"
           d="m 88.97502,280.1339 260.7873,0 0,28.34647 -260.7873,0 0,-28.34647 z" /><g
           transform="translate(96.17503,304.8804)"
           id="g84"><text
             id="text86"
             style="font-variant:normal;font-weight:bold;font-size:16px;font-family:Arial;-inkscape-font-specification:Arial-BoldMT;writing-mode:lr-tb;fill:#000000;fill-opacity:1;fill-rule:nonzero;stroke:none"
             transform="matrix(1,0,0,-1,32.30077,-16)"><tspan
               id="tspan88"
               y="0"
               x="0 10.672 19.571199 33.798401 38.243198 47.142399 56.915199 66.688004 76.4608 86.233597 95.132797 100.4608 110.2336 116.4608 120.9056 129.80479 138.70399 148.47681 157.37601 167.1488 173.37601 182.27521">Semiconductor sensors </tspan></text>
</g><path
           id="path90"
           style="fill:#c8dff2;fill-opacity:1;fill-rule:evenodd;stroke:none"
           d="m 88.63739,239.2027 260.7873,0 0,28.34645 -260.7873,0 0,-28.34645 z" /><g
           transform="translate(95.83739,263.9491)"
           id="g92"><text
             id="text94"
             style="font-variant:normal;font-weight:bold;font-size:16px;font-family:Arial;-inkscape-font-specification:Arial-BoldMT;writing-mode:lr-tb;fill:#000000;fill-opacity:1;fill-rule:nonzero;stroke:none"
             transform="matrix(1,0,0,-1,99.87498,-16)"><tspan
               id="tspan96"
               y="0"
               x="0 11.5552 22.2272 26.672001 38.2272 47.1264">ASICs </tspan></text>
</g><path
           id="path98"
           style="fill:#c8dff2;fill-opacity:1;fill-rule:evenodd;stroke:none"
           d="m 88.63825,198.2714 260.7873,0 0,28.34645 -260.7873,0 0,-28.34645 z" /><g
           transform="translate(95.83825,223.0179)"
           id="g100"><text
             id="text102"
             style="font-variant:normal;font-weight:bold;font-size:16px;font-family:Arial;-inkscape-font-specification:Arial-BoldMT;writing-mode:lr-tb;fill:#000000;fill-opacity:1;fill-rule:nonzero;stroke:none"
             transform="matrix(1,0,0,-1,42.96873,-16)"><tspan
               id="tspan104"
               y="0"
               x="0 10.672 15.1168 24.016001 32.915199 38.243198 44.470402 54.243198 64.015999 68.4608 77.360001 81.804802 91.577599 100.4768 109.376 118.2752 127.1744 136.9472 141.392 151.16479 160.93761">Electronic packaging </tspan></text>
</g><path
           id="path106"
           style="fill:#c8dff2;fill-opacity:1;fill-rule:evenodd;stroke:none"
           d="m 383.0674,280.1339 260.7873,0 0,28.34647 -260.7873,0 0,-28.34647 z" /><g
           transform="translate(390.2675,304.8804)"
           id="g108"><text
             id="text110"
             style="font-variant:normal;font-weight:bold;font-size:16px;font-family:Arial;-inkscape-font-specification:Arial-BoldMT;writing-mode:lr-tb;fill:#000000;fill-opacity:1;fill-rule:nonzero;stroke:none"
             transform="matrix(1,0,0,-1,25.6328,-16)"><tspan
               id="tspan112"
               y="0"
               x="0 12.4448 22.2176 27.545601 31.9904 40.889599 49.788799 54.233601 58.678398 68.451202 77.350403 82.678398 91.577599 96.0224 101.3504 107.5776 116.4768 126.2496 135.1488 149.37601 153.8208 162.72 171.6192 176.064 185.83681 195.6096">Optical data transmission </tspan></text>
</g><path
           id="path114"
           style="fill:#c8dff2;fill-opacity:1;fill-rule:evenodd;stroke:none"
           d="m 383.0674,239.2027 260.7873,0 0,28.34645 -260.7873,0 0,-28.34645 z" /><g
           transform="translate(390.2675,263.9491)"
           id="g116"><text
             id="text118"
             style="font-variant:normal;font-weight:bold;font-size:16px;font-family:Arial;-inkscape-font-specification:Arial-BoldMT;writing-mode:lr-tb;fill:#000000;fill-opacity:1;fill-rule:nonzero;stroke:none"
             transform="matrix(1,0,0,-1,22.95311,-16)"><tspan
               id="tspan120"
               y="0"
               x="0 10.672 16.8992 26.672001 36.444801 42.672001 51.571201 65.798401 80.025597 88.924797 98.697601 103.1424 112.0416 116.4864 125.3856 129.8304 138.7296 147.6288 152.9568 159.18401 168.9568 178.7296 183.17439 192.07359 200.97279">Programmable electronics </tspan></text>
</g><path
           id="path122"
           style="fill:#c8dff2;fill-opacity:1;fill-rule:evenodd;stroke:none"
           d="m 33.8011,115.9623 28.34645,0 0,192.576 -28.34645,0 0,-192.576 z" /><g
           transform="matrix(0,1,-1,0,37.40109,123.1623)"
           id="g124"><text
             id="text126"
             style="font-variant:normal;font-weight:bold;font-size:14px;font-family:Arial;-inkscape-font-specification:Arial-BoldMT;writing-mode:lr-tb;fill:#000000;fill-opacity:1;fill-rule:nonzero;stroke:none"
             transform="matrix(1,0,0,-1,38.08397,-14)"><tspan
               id="tspan128"
               y="0"
               x="0 12.9612 21.5124 26.955601 34.736801 38.625999 47.1772 54.958401 62.739601 70.520798 78.302002 86.853203 94.634399 102.4156">Work packages </tspan></text>
</g><g
           transform="matrix(-7.874014e-5,0,0,-7.874014e-5,336.8608,469.5218)"
           id="g138"><path
             id="path140"
             style="fill:none;stroke:#55677d;stroke-width:19050;stroke-linecap:butt;stroke-linejoin:miter;stroke-miterlimit:8;stroke-dasharray:none;stroke-opacity:1"
             d="M 0.176053,0.2432436 530510.1,1.405964" /></g><g
           transform="matrix(7.874014e-5,0,0,-7.874014e-5,511.1355,392.7903)"
           id="g142"><path
             id="path144"
             style="fill:none;stroke:#55677d;stroke-width:19050;stroke-linecap:butt;stroke-linejoin:miter;stroke-miterlimit:8;stroke-dasharray:none;stroke-opacity:1"
             d="m -0.2889199,-0.1389948 3705368.2889199,0 0,305444.9389948" /></g><g
           transform="matrix(0,-7.874014e-5,7.874014e-5,0,508.6735,419.8413)"
           id="g146"><path
             id="path148"
             style="fill:none;stroke:#55677d;stroke-width:19050;stroke-linecap:butt;stroke-linejoin:miter;stroke-miterlimit:8;stroke-dasharray:none;stroke-opacity:1"
             d="m 0.1732835,-0.2650419 324496.1267165,0 0,1039.8590419 324494.9,0" /></g><g
           transform="matrix(-7.874014e-5,0,0,-7.874014e-5,510.2096,392.7904)"
           id="g150"><path
             id="path152"
             style="fill:none;stroke:#55677d;stroke-width:19050;stroke-linecap:butt;stroke-linejoin:miter;stroke-miterlimit:8;stroke-dasharray:none;stroke-opacity:1"
             d="M 0.1504695,0.1982853 3759331,0.1982853 3759331,305445.2" /></g><g
           transform="matrix(-7.874014e-5,0,0,7.874014e-5,681.8763,294.3071)"
           id="g154"><path
             id="path156"
             style="fill:none;stroke:#55677d;stroke-width:19050;stroke-linecap:butt;stroke-linejoin:miter;stroke-miterlimit:8;stroke-dasharray:none;stroke-opacity:1"
             d="m -0.1098658,-0.138072 143999.8098658,0 0,361889.938072" /></g><g
           transform="matrix(-7.874014e-5,0,0,7.874014e-5,681.8764,253.3758)"
           id="g158"><path
             id="path160"
             style="fill:none;stroke:#55677d;stroke-width:19050;stroke-linecap:butt;stroke-linejoin:miter;stroke-miterlimit:8;stroke-dasharray:none;stroke-opacity:1"
             d="m 0.339841,0.01556554 143985.060159,0 0,864640.98443446" /></g><g
           transform="matrix(-7.874014e-5,0,0,7.874014e-5,681.8764,212.4446)"
           id="g162"><path
             id="path164"
             style="fill:none;stroke:#55677d;stroke-width:19050;stroke-linecap:butt;stroke-linejoin:miter;stroke-miterlimit:8;stroke-dasharray:none;stroke-opacity:1"
             d="m 0.339841,-0.08671704 143988.860159,0 0,1384470.08671704" /></g><g
           transform="matrix(-7.874014e-5,0,0,7.874014e-5,383.0674,294.3071)"
           id="g166"><path
             id="path168"
             style="fill:none;stroke:#55677d;stroke-width:19050;stroke-linecap:butt;stroke-linejoin:miter;stroke-miterlimit:8;stroke-dasharray:none;stroke-opacity:1"
             d="m 0.2149562,-0.138072 97620.0250438,0 0,361889.938072" /></g><g
           transform="matrix(-7.874014e-5,0,0,7.874014e-5,88.97502,294.3071)"
           id="g170"><path
             id="path172"
             style="fill:none;stroke:#55677d;stroke-width:19050;stroke-linecap:butt;stroke-linejoin:miter;stroke-miterlimit:8;stroke-dasharray:none;stroke-opacity:1"
             d="m 0.05491939,-0.138072 115704.04508061,0 0,352961.838072" /></g><g
           transform="matrix(-7.874014e-5,0,0,7.874014e-5,88.63747,253.3758)"
           id="g174"><path
             id="path176"
             style="fill:none;stroke:#55677d;stroke-width:19050;stroke-linecap:butt;stroke-linejoin:miter;stroke-miterlimit:8;stroke-dasharray:none;stroke-opacity:1"
             d="M 0.00321051,0.01556554 111409,0.01556554 111409,881715.1" /></g><g
           transform="matrix(-7.874014e-5,0,0,7.874014e-5,88.6007,171.5133)"
           id="g178"><path
             id="path180"
             style="fill:none;stroke:#55677d;stroke-width:19050;stroke-linecap:butt;stroke-linejoin:miter;stroke-miterlimit:8;stroke-dasharray:none;stroke-opacity:1"
             d="M 0.05714585,0.06692052 113608.1,0.06692052 113608.1,1904297" /></g><g
           transform="matrix(7.874014e-5,0,0,-7.874014e-5,680.4861,469.5218)"
           id="g236"><path
             id="path238"
             style="fill:none;stroke:#55677d;stroke-width:19050;stroke-linecap:butt;stroke-linejoin:miter;stroke-miterlimit:8;stroke-dasharray:none;stroke-opacity:1"
             d="M -0.6291775,0.2432436 530509.7,1.405964" /></g><path
           id="path240"
           style="fill:#ffdf79;fill-opacity:1;fill-rule:evenodd;stroke:none"
           d="m 372.6924,318.7218 272.1259,0 0,50.01785 -272.1259,0 0,-50.01785 z" /><g
           transform="translate(379.8924,365.1396)"
           id="g242"><text
             id="text244"
             style="font-variant:normal;font-weight:bold;font-size:16px;font-family:Arial;-inkscape-font-specification:Arial-BoldMT;writing-mode:lr-tb;fill:#000000;fill-opacity:1;fill-rule:nonzero;stroke:none"
             transform="matrix(1,0,0,-1,6.804672,-16)"><tspan
               id="tspan246"
               y="0"
               x="0 11.5552 20.454399 25.7824 34.681599 39.1264 44.454399 50.681599 59.580799 69.3536 78.2528 92.480003 96.924797 105.824 114.7232 119.168 128.9408 138.71359 143.1584 154.71359 159.1584 168.9312 175.1584 184.9312 193.8304 202.7296 211.6288 220.528 224.97279 234.74561 244.5184">Data transmission &amp; processing </tspan></text>
</g><g
           transform="translate(379.8924,346.1396)"
           id="g248"><text
             id="text250"
             style="font-variant:normal;font-weight:normal;font-size:14px;font-family:Arial;-inkscape-font-specification:ArialMT;writing-mode:lr-tb;fill:#000000;fill-opacity:1;fill-rule:nonzero;stroke:none"
             transform="matrix(1,0,0,-1,80.84178,-14)"><tspan
               id="tspan252"
               y="0"
               x="0 7 10.8892 14.7784 24.8892 28 31.8892 43.551201 51.338001 59.124802 63.014 67.676003 76.227203 84.778397 91.778397 96.440399">J. Ritman (FZJ) </tspan></text>
</g><path
           id="path254"
           style="fill:#ffdf79;fill-opacity:1;fill-rule:evenodd;stroke:none"
           d="m 666.8337,321.4993 272.1259,0 0,47.2403 -272.1259,0 0,-47.2403 z" /><g
           transform="translate(674.0338,365.1396)"
           id="g256"><text
             id="text258"
             style="font-variant:normal;font-weight:bold;font-size:16px;font-family:Arial;-inkscape-font-specification:Arial-BoldMT;writing-mode:lr-tb;fill:#000000;fill-opacity:1;fill-rule:nonzero;stroke:none"
             transform="matrix(1,0,0,-1,62.36327,-16)"><tspan
               id="tspan260"
               y="0"
               x="0 11.5552 20.454399 25.7824 34.681599 43.580799 48.908798 58.681599 64.908798 69.3536 78.2528 87.152 96.051201 101.3792 110.2784 124.5056 133.4048">Detector systems </tspan></text>
</g><g
           transform="translate(674.0338,346.1396)"
           id="g262"><text
             id="text264"
             style="font-variant:normal;font-weight:normal;font-size:14px;font-family:Arial;-inkscape-font-specification:ArialMT;writing-mode:lr-tb;fill:#000000;fill-opacity:1;fill-rule:nonzero;stroke:none"
             transform="matrix(1,0,0,-1,68.77635,-14)"><tspan
               id="tspan266"
               y="0"
               x="0 10.1108 14 17.8892 24.8892 28.7784 32.667599 42.0056 49.0056 56.7924 68.454399 71.565201 79.351997 83.241203 87.130402 91.792397 102.6816 112.0196 115.9088 120.5708">C. J. Schmidt (GSI) </tspan></text>
</g><path
           id="path268"
           style="fill:#ffdf79;fill-opacity:1;fill-rule:evenodd;stroke:none"
           d="m 78.13629,322.4251 272.1259,0 0,46.31448 -272.1259,0 0,-46.31448 z" /><g
           transform="translate(85.33629,365.1396)"
           id="g270"><text
             id="text272"
             style="font-variant:normal;font-weight:bold;font-size:16px;font-family:Arial;-inkscape-font-specification:Arial-BoldMT;writing-mode:lr-tb;fill:#000000;fill-opacity:1;fill-rule:nonzero;stroke:none"
             transform="matrix(1,0,0,-1,12.87889,-16)"><tspan
               id="tspan274"
               y="0"
               x="0 10.672 19.571199 29.344 38.243198 48.015999 54.243198 63.142399 67.587196 71.4384 82.993599 93.665604 98.110397 109.6656 118.5648 123.0096 127.4544 131.8992 141.672 147 155.8992 162.1264 171.0256 180.7984 190.5712 200.34399 209.24319 218.1424 223.4704 232.3696">Sensors, ASICs, Interconnects </tspan></text>
</g><g
           transform="translate(85.33629,346.1396)"
           id="g276"><text
             id="text278"
             style="font-variant:normal;font-weight:normal;font-size:14px;font-family:Arial;-inkscape-font-specification:ArialMT;writing-mode:lr-tb;fill:#000000;fill-opacity:1;fill-rule:nonzero;stroke:none"
             transform="matrix(1,0,0,-1,63.71776,-14)"><tspan
               id="tspan280"
               y="0"
               x="0 10.1108 14 17.8892 28.7784 33.440399 41.2272 49.014 52.903198 59.903198 71.565201 79.351997 83.241203 87.903198 98.014 107.352 116.69 126.028 130.69">H. Graafsma (DESY) </tspan></text>
</g><path
           id="path296"
           style="fill:#dee3ea;fill-opacity:1;fill-rule:evenodd;stroke:none"
           d="m 79.59739,420.4519 215.491,0 0,98.13974 -215.491,0 0,-98.13974 z" /><g
           transform="translate(86.79739,506.7217)"
           id="g298"><text
             id="text300"
             style="font-variant:normal;font-weight:bold;font-size:20px;font-family:Arial;-inkscape-font-specification:Arial-BoldMT;writing-mode:lr-tb;fill:#000000;fill-opacity:1;fill-rule:nonzero;stroke:none"
             transform="matrix(1,0,0,-1,4.636719,-20)"><tspan
               id="tspan302"
               y="0"
               x="0 14.444 26.66 32.216 37.771999 48.896 61.112 73.328003 81.112 92.236 98.896004 104.452 116.668 128.884 134.44 148.884 161.10001 172.224 180.008 192.224">Collaboration Board </tspan></text>
</g><g
           transform="translate(86.79739,482.7217)"
           id="g304" /><g
           transform="translate(86.79739,466.7217)"
           id="g306"><text
             id="text308"
             style="font-variant:normal;font-weight:normal;font-size:14px;font-family:Arial;-inkscape-font-specification:ArialMT;writing-mode:lr-tb;fill:#000000;fill-opacity:1;fill-rule:nonzero;stroke:none"
             transform="matrix(1,0,0,-1,33.82959,-14)"><tspan
               id="tspan310"
               y="0"
               x="0 7 14.7868 22.573601 26.462799 34.249599 38.911598 42.8008 50.587601 58.374401 70.0364 73.147202 80.933998 84.0448 91.0448 94.933998 99.596001 107.3828 111.272 114.3828 122.1696 129.95641 133.8456">center administration, </tspan></text>
</g><g
           transform="translate(86.79739,449.7217)"
           id="g312"><text
             id="text314"
             style="font-variant:normal;font-weight:normal;font-size:14px;font-family:Arial;-inkscape-font-specification:ArialMT;writing-mode:lr-tb;fill:#000000;fill-opacity:1;fill-rule:nonzero;stroke:none"
             transform="matrix(1,0,0,-1,28.38135,-14)"><tspan
               id="tspan316"
               y="0"
               x="0 7 14.7868 22.573601 27.2356 35.0224 38.133202 45.919998 53.706799 57.596001 60.706799 68.493599 76.280403 80.169601 87.169601 94.956398 106.6184 118.2804 121.3912 125.2804 129.1696 136.95641 144.74319">coordination committee </tspan></text>
</g><path
           id="path318"
           style="fill:#c8dff2;fill-opacity:1;fill-rule:evenodd;stroke:none"
           d="m 88.6007,157.3401 260.7873,0 0,28.34645 -260.7873,0 0,-28.34645 z" /><g
           transform="translate(95.8007,182.0866)"
           id="g320"><text
             id="text322"
             style="font-variant:normal;font-weight:bold;font-size:16px;font-family:Arial;-inkscape-font-specification:Arial-BoldMT;writing-mode:lr-tb;fill:#000000;fill-opacity:1;fill-rule:nonzero;stroke:none"
             transform="matrix(1,0,0,-1,41.62889,-16)"><tspan
               id="tspan324"
               y="0"
               x="0 4.4447999 14.2176 23.9904 33.763199 42.662399 51.5616 56.889599 61.3344 70.233597 79.132797 88.905602 93.350403 107.5776 116.4768 121.8048 130.70399 136.9312 141.37601 150.27521 154.72 163.6192">Innovatived materials </tspan></text>
</g><path
           id="path326"
           style="fill:#c8dff2;fill-opacity:1;fill-rule:evenodd;stroke:none"
           d="m 383.0674,198.2714 260.7873,0 0,28.34645 -260.7873,0 0,-28.34645 z" /><g
           transform="translate(390.2675,223.0179)"
           id="g328"><text
             id="text330"
             style="font-variant:normal;font-weight:bold;font-size:16px;font-family:Arial;-inkscape-font-specification:Arial-BoldMT;writing-mode:lr-tb;fill:#000000;fill-opacity:1;fill-rule:nonzero;stroke:none"
             transform="matrix(1,0,0,-1,50.0703,-16)"><tspan
               id="tspan332"
               y="0"
               x="0 10.672 19.571199 25.798401 34.697601 39.142399 43.5872 52.486401 56.931198 61.375999 71.148804 77.375999 87.148804 96.047997 104.9472 113.8464 122.7456 127.1904 136.9632 146.73599">Parallel processing </tspan></text>
</g><g
           transform="matrix(-7.874014e-5,0,0,7.874014e-5,88.59983,209.8971)"
           id="g334"><path
             id="path336"
             style="fill:none;stroke:#55677d;stroke-width:19050;stroke-linecap:butt;stroke-linejoin:miter;stroke-miterlimit:8;stroke-dasharray:none;stroke-opacity:1"
             d="M -0.02201505,0.06919596 111409,0.06919596 111409,881715.2" /></g><g
           transform="matrix(-7.874014e-5,0,0,7.874014e-5,383.0674,253.3758)"
           id="g338"><path
             id="path340"
             style="fill:none;stroke:#55677d;stroke-width:19050;stroke-linecap:butt;stroke-linejoin:miter;stroke-miterlimit:8;stroke-dasharray:none;stroke-opacity:1"
             d="m 0.2149562,0.01556554 98099.8350438,0 0,729317.08443446" /></g><g
           transform="matrix(-7.874014e-5,0,0,7.874014e-5,382.1414,212.4445)"
           id="g342"><path
             id="path344"
             style="fill:none;stroke:#55677d;stroke-width:19050;stroke-linecap:butt;stroke-linejoin:miter;stroke-miterlimit:8;stroke-dasharray:none;stroke-opacity:1"
             d="m -0.1483476,-0.05565029 86817.9683476,0 0,743994.95565029" /></g><path
           id="path346"
           style="fill:#c8dff2;fill-opacity:1;fill-rule:evenodd;stroke:none"
           d="m 678.1724,280.1339 260.7873,0 0,28.34647 -260.7873,0 0,-28.34647 z" /><g
           transform="translate(685.3724,304.8804)"
           id="g348"><text
             id="text350"
             style="font-variant:normal;font-weight:bold;font-size:16px;font-family:Arial;-inkscape-font-specification:Arial-BoldMT;writing-mode:lr-tb;fill:#000000;fill-opacity:1;fill-rule:nonzero;stroke:none"
             transform="matrix(1,0,0,-1,83.8867,-16)"><tspan
               id="tspan352"
               y="0"
               x="0 11.5552 24 33.7728 39.1008 50.655998 60.428799 70.201599 79.1008">HGF-Cube </tspan></text>
</g><path
           id="path354"
           style="fill:#c8dff2;fill-opacity:1;fill-rule:evenodd;stroke:none"
           d="m 678.1724,239.2027 260.7873,0 0,28.34645 -260.7873,0 0,-28.34645 z" /><g
           transform="translate(685.3724,263.9491)"
           id="g356"><text
             id="text358"
             style="font-variant:normal;font-weight:bold;font-size:16px;font-family:Arial;-inkscape-font-specification:Arial-BoldMT;writing-mode:lr-tb;fill:#000000;fill-opacity:1;fill-rule:nonzero;stroke:none"
             transform="matrix(1,0,0,-1,16.29686,-16)"><tspan
               id="tspan360"
               y="0"
               x="0 11.5552 21.327999 35.555199 45.327999 54.2272 63.1264 68.454399 72.8992 82.671997 91.571198 100.4704 109.3696 119.1424 128.91521 137.81441 142.2592 152.032 160.9312 166.2592 175.1584 184.0576 189.3856 199.1584 205.3856 214.28481">Compact gaseous detectors </tspan></text>
</g><path
           id="path362"
           style="fill:#c8dff2;fill-opacity:1;fill-rule:evenodd;stroke:none"
           d="m 678.1724,198.2714 260.7873,0 0,28.34645 -260.7873,0 0,-28.34645 z" /><g
           transform="translate(685.3724,223.0179)"
           id="g364"><text
             id="text366"
             style="font-variant:normal;font-weight:bold;font-size:16px;font-family:Arial;-inkscape-font-specification:Arial-BoldMT;writing-mode:lr-tb;fill:#000000;fill-opacity:1;fill-rule:nonzero;stroke:none"
             transform="matrix(1,0,0,-1,0.753891,-16)"><tspan
               id="tspan368"
               y="0"
               x="0 9.7728004 18.672001 27.571199 32.8992 37.344002 47.116798 56.889599 66.662399 71.990402 81.763199 91.536003 95.980797 104.88 114.6528 124.4256 128.87041 139.5424 144.87041 151.0976 159.9968 168.896 173.34081 183.1136 192.0128 197.34081 206.24001 215.13921 220.46719 230.24001 236.46719 245.36639">Fast photon and X-ray detectors </tspan></text>
</g><g
           transform="matrix(-7.874014e-5,0,0,7.874014e-5,681.8387,170.8175)"
           id="g370"><path
             id="path372"
             style="fill:none;stroke:#55677d;stroke-width:19050;stroke-linecap:butt;stroke-linejoin:miter;stroke-miterlimit:8;stroke-dasharray:none;stroke-opacity:1"
             d="m 0.6052954,0.03321296 143988.8947046,0 0,1384469.96678704" /></g><g
           transform="matrix(-7.874014e-5,0,0,7.874014e-5,681.8011,131.0422)"
           id="g374"><path
             id="path376"
             style="fill:none;stroke:#55677d;stroke-width:19050;stroke-linecap:butt;stroke-linejoin:miter;stroke-miterlimit:8;stroke-dasharray:none;stroke-opacity:1"
             d="M 0.09560323,0.01973575 143989,0.01973575 143989,1384470" /></g><path
           id="path378"
           style="fill:#c8dff2;fill-opacity:1;fill-rule:evenodd;stroke:none"
           d="m 678.1347,157.3401 260.7873,0 0,28.34645 -260.7873,0 0,-28.34645 z" /><g
           transform="translate(685.3347,182.0866)"
           id="g380"><text
             id="text382"
             style="font-variant:normal;font-weight:bold;font-size:16px;font-family:Arial;-inkscape-font-specification:Arial-BoldMT;writing-mode:lr-tb;fill:#000000;fill-opacity:1;fill-rule:nonzero;stroke:none"
             transform="matrix(1,0,0,-1,12.73827,-16)"><tspan
               id="tspan384"
               y="0"
               x="0 9.7728004 18.672001 27.571199 32.8992 37.344002 42.672001 47.116798 61.344002 65.788803 75.5616 85.334396 89.779198 99.552002 108.4512 113.7792 122.6784 131.57761 136.90559 146.67841 152.90559 157.3504 166.2496 175.1488 184.048 189.37601 198.27521 212.5024 221.4016">Fast timing detector systems </tspan></text>
</g><path
           id="path386"
           style="fill:#c8dff2;fill-opacity:1;fill-rule:evenodd;stroke:none"
           d="m 678.0971,116.4089 260.7873,0 0,28.34645 -260.7873,0 0,-28.34645 z" /><g
           transform="translate(685.2971,141.1553)"
           id="g388"><text
             id="text390"
             style="font-variant:normal;font-weight:bold;font-size:16px;font-family:Arial;-inkscape-font-specification:Arial-BoldMT;writing-mode:lr-tb;fill:#000000;fill-opacity:1;fill-rule:nonzero;stroke:none"
             transform="matrix(1,0,0,-1,36.73436,-16)"><tspan
               id="tspan392"
               y="0"
               x="0 11.5552 24.8832 37.327999 48 52.444801 61.344002 70.243202 80.015999 88.915199 98.688004 104.9152 109.36 118.2592 127.1584 136.0576 141.3856 150.28481 164.51199 173.41119">CMOS sensor systems </tspan></text>
</g></g></g></g></svg>